<svg width="1200" height="560" viewBox="0 0 1200 560" fill="none" xmlns="http://www.w3.org/2000/svg" role="img" aria-labelledby="title desc">
  <title id="title">ZaneOS Arcade profile hero</title>
  <desc id="desc">A polished ZaneOS command center with AI helper modes, project quests, and a small build snake motif for Zane Wang's GitHub profile.</desc>
  <defs>
    <linearGradient id="paper" x1="0" y1="0" x2="1200" y2="560" gradientUnits="userSpaceOnUse">
      <stop stop-color="#FFF9ED"/>
      <stop offset=".58" stop-color="#F4EEE2"/>
      <stop offset="1" stop-color="#E8EFE8"/>
    </linearGradient>
    <linearGradient id="snake" x1="0" y1="0" x2="170" y2="0" gradientUnits="userSpaceOnUse">
      <stop stop-color="#1B7C76"/>
      <stop offset=".54" stop-color="#D6A73D"/>
      <stop offset="1" stop-color="#B45B38"/>
    </linearGradient>
    <filter id="softShadow" x="-20%" y="-20%" width="140%" height="140%" color-interpolation-filters="sRGB">
      <feDropShadow dx="0" dy="22" stdDeviation="28" flood-color="#18211F" flood-opacity=".13"/>
    </filter>
    <style>
      .serif{font-family:ui-serif,Georgia,'Times New Roman',serif}
      .sans{font-family:-apple-system,BlinkMacSystemFont,'Segoe UI',sans-serif}
      .mono{font-family:'SFMono-Regular',Consolas,'Liberation Mono',monospace}
      .ink{fill:#18211F}
      .muted{fill:#66716B}
      .label{font-size:13px;font-weight:800;letter-spacing:.12em}
      .body{font-size:19px;line-height:1.45}
      .small{font-size:13px;font-weight:650}
    </style>
  </defs>

  <rect width="1200" height="560" rx="34" fill="url(#paper)"/>
  <path d="M0 423 C182 375 310 468 520 408 C725 350 850 352 1014 407 C1096 435 1154 420 1200 383 V560 H0 V423Z" fill="#E4ECE0"/>
  <path d="M70 70 H1130" stroke="#18211F" stroke-width="2" stroke-linecap="round" opacity=".14"/>
  <circle cx="79" cy="43" r="7" fill="#B45B38"/>
  <circle cx="104" cy="43" r="7" fill="#D6A73D"/>
  <circle cx="129" cy="43" r="7" fill="#1B7C76"/>
  <text x="156" y="48" class="mono label muted">ZELINEWANG / README.MD · PROFILE OPERATING SYSTEM</text>

  <g transform="translate(70 98)">
    <text x="0" y="0" class="mono label" fill="#B45B38">PERSONAL OS WITH PLAYABLE EDGES</text>
    <text x="0" y="78" class="serif ink" font-size="74" font-weight="650" letter-spacing="-5">ZaneOS, now</text>
    <text x="0" y="151" class="serif ink" font-size="74" font-weight="650" letter-spacing="-5">with side quests.</text>
    <text x="2" y="198" class="sans body muted">AI systems, agent memory, maps, hardware instincts, and</text>
    <text x="2" y="226" class="sans body muted">developer tools — organized like a calm command center,</text>
    <text x="2" y="254" class="sans body muted">with enough arcade energy to stay memorable.</text>

    <g transform="translate(0 292)" filter="url(#softShadow)">
      <rect width="474" height="146" rx="24" fill="#18211F"/>
      <text x="26" y="39" class="mono" fill="#D6A73D" font-size="17">&gt; zaneos ask "what is Zane weirdly good at?"</text>
      <text x="26" y="75" class="mono" fill="#FFF9ED" font-size="17">fast answer: practical AI + maps + tooling taste</text>
      <text x="26" y="111" class="mono" fill="#9ED8C7" font-size="17">side quest: compare a GitHub username</text>
    </g>
  </g>

  <g transform="translate(620 94)" filter="url(#softShadow)">
    <rect width="506" height="356" rx="30" fill="#FFF9ED" stroke="#D8D0C2"/>
    <text x="28" y="43" class="mono label" fill="#1B7C76">ZANEOS SIDEKICK</text>
    <text x="28" y="87" class="serif ink" font-size="39" font-weight="650" letter-spacing="-2">Ask, match, quest, boop.</text>
    <text x="30" y="119" class="sans muted" font-size="16">A profile-native helper concept built from public signals only.</text>

    <g transform="translate(28 148)">
      <rect width="213" height="70" rx="18" fill="#F0E8D8" stroke="#D8D0C2"/>
      <text x="18" y="29" class="mono small ink">ASK</text>
      <text x="18" y="51" class="sans muted" font-size="13">short, grounded answers</text>
      <rect x="231" width="213" height="70" rx="18" fill="#EEF3E8" stroke="#D8D0C2"/>
      <text x="249" y="29" class="mono small ink">MATCH</text>
      <text x="249" y="51" class="sans muted" font-size="13">username overlap finder</text>
      <rect y="88" width="213" height="70" rx="18" fill="#F4E6DD" stroke="#D8D0C2"/>
      <text x="18" y="117" class="mono small ink">QUEST</text>
      <text x="18" y="139" class="sans muted" font-size="13">repo as mission card</text>
      <rect x="231" y="88" width="213" height="70" rx="18" fill="#EFE7C9" stroke="#D8D0C2"/>
      <text x="249" y="117" class="mono small ink">BOOP</text>
      <text x="249" y="139" class="sans muted" font-size="13">one useful strange idea</text>
    </g>

    <g transform="translate(30 259)">
      <text x="0" y="0" class="mono small muted">BUILD SNAKE SIGNAL</text>
      <rect x="0" y="18" width="300" height="42" rx="13" fill="#18211F" opacity=".9"/>
      <path d="M22 39 H72 C92 39 91 27 111 27 H168 C196 27 189 50 221 50 H264" stroke="url(#snake)" stroke-width="10" stroke-linecap="round"/>
      <circle cx="267" cy="50" r="12" fill="#B45B38"/>
      <circle cx="272" cy="46" r="2" fill="#FFF9ED"/>
      <rect x="324" y="18" width="120" height="42" rx="21" fill="#18211F"/>
      <text x="349" y="44" class="mono small" fill="#FFF9ED">score +1</text>
    </g>
  </g>

  <g transform="translate(620 476)">
    <rect width="118" height="30" rx="15" fill="#FFF9ED" stroke="#D8D0C2"/>
    <text x="18" y="20" class="sans small ink">fast answers</text>
    <rect x="132" width="138" height="30" rx="15" fill="#FFF9ED" stroke="#D8D0C2"/>
    <text x="150" y="20" class="sans small ink">public signals</text>
    <rect x="284" width="126" height="30" rx="15" fill="#FFF9ED" stroke="#D8D0C2"/>
    <text x="302" y="20" class="sans small ink">low clutter</text>
    <rect x="424" width="122" height="30" rx="15" fill="#FFF9ED" stroke="#D8D0C2"/>
    <text x="442" y="20" class="sans small ink">high taste</text>
  </g>
</svg>
